<?xml version="1.0" encoding="iso-8859-1"?>
<!-- Uploaded to: SVG Repo, www.svgrepo.com, Generator: SVG Repo Mixer Tools -->
<svg fill="#FFFFFF" height="800px" width="800px" version="1.1" id="Layer_1" xmlns="http://www.w3.org/2000/svg" xmlns:xlink="http://www.w3.org/1999/xlink" 
	 viewBox="0 0 512 512" xml:space="preserve">
<g>
	<g>
		<path d="M466.768,301.378h-42.753c-9.425,0-17.067,7.641-17.067,17.067v62.564c0,11.027-8.973,20-20,20s-19.999-8.973-19.999-20
			V247.521c0.146-7.203-0.445-14.467-1.782-21.683l22.034-4.43c33.283-6.692,45.105-48.271,20.308-71.472L304.73,53.78
			C296.521,30.989,290.523,0,256.001,0c-33.764,0-39.951,29.405-48.73,53.78l-102.779,96.156
			c-24.791,23.194-12.988,64.778,20.307,71.472l22.034,4.43c-1.337,7.216-1.927,14.479-1.782,21.683v133.486
			c0,11.027-8.971,20-19.999,20s-20-8.972-20-20v-62.564c0-9.425-7.641-17.067-17.067-17.067H45.233
			c-9.425,0-17.067,7.641-17.067,17.067c0,9.425,7.641,17.067,17.067,17.067h25.686v45.497c0,29.849,24.285,54.133,54.133,54.133
			s54.132-24.285,54.132-54.133v-58.048c7.896,7.188,16.54,13.096,25.682,17.675v154.299c0,9.425,7.641,17.067,17.067,17.067
			S239,504.359,239,494.933V351.415c11.03,1.652,22.145,1.776,34,0v143.518c0,9.425,7.641,17.067,17.067,17.067
			c9.425,0,17.067-7.641,17.067-17.067V340.636c9.142-4.58,17.786-10.486,25.682-17.675v58.048
			c0,29.848,24.284,54.133,54.132,54.133c29.848,0,54.133-24.285,54.133-54.133v-45.497h25.686c9.425,0,17.067-7.641,17.067-17.067
			S476.194,301.378,466.768,301.378z M157.099,193.085l-25.573-5.143c-6.127-1.23-8.283-8.806-3.716-13.08l54.071-50.587
			C178.591,133.412,160.405,183.907,157.099,193.085z M256.001,318.572c-51.396-0.006-90.599-47.804-72.478-98.121
			C254.84,22.451,248.499,34.133,256.001,34.133c6.958,0,0.85-12.557,72.478,186.317
			C346.527,270.569,307.602,318.576,256.001,318.572z M330.12,124.276l54.072,50.587c4.563,4.27,2.413,11.849-3.718,13.081
			l-25.572,5.142L330.12,124.276z"/>
	</g>
</g>
<g>
	<g>
		<circle cx="209.67" cy="246.044" r="22.577"/>
	</g>
</g>
<g>
	<g>
		<circle cx="303.014" cy="246.044" r="22.577"/>
	</g>
</g>
</svg>